<svg width="781" height="258" viewBox="0 0 781 258" fill="none" xmlns="http://www.w3.org/2000/svg">
<rect width="781" height="258" rx="25" fill="#E0D8C6"/>
<path d="M697.811 180.419C695.055 180.419 692.833 179.841 691.143 178.686C689.543 177.441 688.743 175.663 688.743 173.351C688.743 171.04 689.543 169.262 691.143 168.017C692.744 166.772 694.966 166.15 697.811 166.15C700.567 166.15 702.746 166.772 704.346 168.017C706.035 169.262 706.88 171.04 706.88 173.351C706.88 175.663 706.035 177.441 704.346 178.686C702.746 179.841 700.567 180.419 697.811 180.419Z" fill="#15038C"/>
<path d="M640.519 121.475V148.413C640.519 156.681 641.986 162.638 644.92 166.283C647.854 169.839 653.055 171.618 660.523 171.618C665.057 171.618 670.303 170.995 676.259 169.751L676.126 178.152C674.703 178.597 672.347 179.086 669.058 179.619C665.857 180.153 663.057 180.419 660.656 180.419C651.766 180.419 644.52 178.241 638.919 173.885C633.407 169.528 630.651 161.038 630.651 148.413V121.475H611.18V112.673H630.651V95.0698H640.519V112.673H677.993V121.475H640.519Z" fill="#15038C"/>
<path d="M544.42 132.277C544.42 125.609 547.132 120.497 552.555 116.941C557.978 113.385 565.624 111.606 575.492 111.606C579.938 111.606 584.294 112.007 588.562 112.807C592.829 113.607 596.252 114.451 598.83 115.34V124.676C596.341 123.52 592.918 122.542 588.562 121.742C584.205 120.853 579.893 120.408 575.626 120.408C569.047 120.408 563.846 121.342 560.023 123.209C556.2 125.076 554.288 127.921 554.288 131.744C554.288 135.211 555.489 137.611 557.889 138.945C560.29 140.19 564.157 141.034 569.491 141.479L583.227 142.279C591.229 142.723 597.052 144.324 600.697 147.08C604.342 149.836 606.165 153.748 606.165 158.815C606.165 165.928 603.364 171.307 597.763 174.952C592.251 178.597 584.25 180.419 573.759 180.419C568.602 180.419 563.624 179.93 558.823 178.952C554.022 177.886 550.421 176.863 548.021 175.885V166.417C550.866 167.661 554.6 168.862 559.223 170.017C563.846 171.084 568.691 171.618 573.759 171.618C580.871 171.618 586.383 170.64 590.295 168.684C594.296 166.728 596.296 163.661 596.296 159.482C596.296 156.459 595.096 154.37 592.696 153.214C590.384 151.97 586.472 151.081 580.96 150.547L567.224 149.747C559.756 149.302 554.066 147.613 550.154 144.679C546.331 141.657 544.42 137.522 544.42 132.277Z" fill="#15038C"/>
<path d="M504.598 180.419C498.374 180.419 492.907 178.997 488.195 176.152C483.572 173.218 480.015 169.173 477.526 164.016C475.037 158.771 473.792 152.77 473.792 146.013C473.792 139.256 475.037 133.299 477.526 128.143C480.015 122.897 483.572 118.852 488.195 116.007C492.907 113.073 498.374 111.606 504.598 111.606C510.821 111.606 516.244 113.073 520.868 116.007C525.58 118.852 529.18 122.897 531.67 128.143C534.248 133.299 535.537 139.256 535.537 146.013C535.537 152.77 534.248 158.771 531.67 164.016C529.18 169.173 525.58 173.218 520.868 176.152C516.244 178.997 510.821 180.419 504.598 180.419ZM504.598 171.618C511.532 171.618 516.778 169.262 520.334 164.55C523.89 159.749 525.668 153.57 525.668 146.013C525.668 138.456 523.89 132.321 520.334 127.609C516.778 122.809 511.532 120.408 504.598 120.408C497.663 120.408 492.418 122.809 488.861 127.609C485.394 132.321 483.66 138.456 483.66 146.013C483.66 153.57 485.394 159.749 488.861 164.55C492.418 169.262 497.663 171.618 504.598 171.618Z" fill="#15038C"/>
<path d="M438.104 111.606C446.817 111.606 453.44 114.674 457.974 120.808C462.597 126.854 464.909 134.989 464.909 145.213C464.909 152.503 463.709 158.815 461.308 164.15C458.997 169.395 455.752 173.44 451.573 176.285C447.394 179.041 442.682 180.419 437.437 180.419C426.679 180.419 419.878 176.063 417.033 167.35H416.5L417.833 180.419V207.358H407.965V112.673H414.899L417.033 124.542H417.7C418.767 120.186 421.078 116.941 424.635 114.807C428.191 112.673 432.681 111.606 438.104 111.606ZM436.504 171.618C442.282 171.618 446.817 169.351 450.106 164.816C453.396 160.193 455.04 153.703 455.04 145.346C455.04 137.167 453.44 130.988 450.239 126.809C447.039 122.542 442.549 120.408 436.77 120.408C432.058 120.408 428.013 121.653 424.635 124.142C421.256 126.632 418.989 130.099 417.833 134.544V155.348C419.256 160.949 421.523 165.083 424.635 167.75C427.746 170.329 431.703 171.618 436.504 171.618Z" fill="#15038C"/>
<path d="M367.476 111.606C376.189 111.606 382.812 114.674 387.346 120.808C391.969 126.854 394.281 134.989 394.281 145.213C394.281 152.503 393.081 158.815 390.68 164.15C388.369 169.395 385.124 173.44 380.945 176.285C376.767 179.041 372.055 180.419 366.809 180.419C356.052 180.419 349.25 176.063 346.405 167.35H345.872L347.205 180.419V207.358H337.337V112.673H344.272L346.405 124.542H347.072C348.139 120.186 350.45 116.941 354.007 114.807C357.563 112.673 362.053 111.606 367.476 111.606ZM365.876 171.618C371.655 171.618 376.189 169.351 379.478 164.816C382.768 160.193 384.412 153.703 384.412 145.346C384.412 137.167 382.812 130.988 379.612 126.809C376.411 122.542 371.921 120.408 366.142 120.408C361.43 120.408 357.385 121.653 354.007 124.142C350.628 126.632 348.361 130.099 347.205 134.544V155.348C348.628 160.949 350.895 165.083 354.007 167.75C357.118 170.329 361.075 171.618 365.876 171.618Z" fill="#15038C"/>
<path d="M310.317 111.606C316.274 111.606 320.497 113.296 322.986 116.674C325.476 119.964 326.721 124.942 326.721 131.61V179.353H317.252V133.344C317.252 128.81 316.674 125.476 315.518 123.342C314.363 121.119 311.962 120.008 308.317 120.008C304.939 120.008 302.36 121.119 300.582 123.342C298.893 125.476 297.871 128.632 297.515 132.81V179.353H288.047V133.344C288.047 128.81 287.424 125.476 286.18 123.342C285.024 121.119 282.623 120.008 278.978 120.008C275.866 120.008 273.422 120.942 271.643 122.809C269.954 124.676 268.843 127.565 268.31 131.477V179.353H258.841V112.673H265.509L267.643 121.075H267.909C268.621 117.785 270.043 115.385 272.177 113.874C274.4 112.362 277.378 111.606 281.112 111.606C285.202 111.606 288.447 112.407 290.847 114.007C293.336 115.607 295.115 117.963 296.181 121.075C297.515 114.763 302.227 111.606 310.317 111.606Z" fill="#15038C"/>
<path d="M253.292 172.151C253.914 172.151 254.537 172.107 255.159 172.018C255.781 171.84 256.226 171.751 256.493 171.751V179.486C255.159 180.108 253.248 180.419 250.758 180.419C246.935 180.419 243.868 179.219 241.556 176.819C239.334 174.418 238.089 170.862 237.822 166.15H237.289C236.4 171.04 234.044 174.641 230.221 176.952C226.398 179.264 221.642 180.419 215.952 180.419C208.839 180.419 202.927 178.508 198.215 174.685C193.592 170.773 191.28 165.572 191.28 159.082C191.28 153.214 193.458 148.458 197.815 144.813C202.26 141.168 208.795 139.345 217.419 139.345C220.797 139.345 224.487 139.567 228.487 140.012C232.488 140.367 235.466 140.723 237.422 141.079H237.822V139.478C237.822 134.944 237.244 131.344 236.089 128.676C235.022 125.92 232.977 123.875 229.954 122.542C226.931 121.119 222.575 120.408 216.885 120.408C212.44 120.408 208.128 120.897 203.949 121.875C199.86 122.764 196.526 123.787 193.947 124.942L193.814 115.607C196.748 114.54 200.304 113.607 204.483 112.807C208.661 112.007 212.929 111.606 217.285 111.606C228.487 111.606 236.355 113.962 240.89 118.674C245.424 123.298 247.691 130.143 247.691 139.212V164.55C247.691 167.217 248.091 169.173 248.891 170.418C249.78 171.573 251.247 172.151 253.292 172.151ZM216.085 171.618C221.597 171.618 226.354 170.195 230.354 167.35C234.355 164.505 236.844 160.816 237.822 156.282V147.613H217.819C206.705 147.613 201.149 151.436 201.149 159.082C201.149 162.905 202.349 165.972 204.749 168.284C207.239 170.506 211.017 171.618 216.085 171.618Z" fill="#15038C"/>
<path d="M180.282 171.618C182.861 171.618 184.994 171.306 186.684 170.684V179.486C184.639 180.108 182.283 180.419 179.616 180.419C174.37 180.419 169.436 178.819 164.813 175.618C160.279 172.418 156.322 167.795 152.944 161.749L140.942 179.352H129.74C138.897 166.461 145.165 157.393 148.543 152.147C144.098 140.323 141.875 126.187 141.875 109.739C141.875 88.5798 147.387 78 158.412 78C163.479 78 167.48 80.2226 170.414 84.6679C173.437 89.0243 174.948 95.47 174.948 104.005C174.948 112.807 173.748 120.764 171.347 127.876C168.947 134.9 164.724 143.257 158.678 152.947C161.434 158.904 164.724 163.527 168.547 166.817C172.37 170.017 176.282 171.618 180.282 171.618ZM151.344 114.14C151.344 124.364 152.499 133.655 154.811 142.012C158.989 134.9 161.79 128.632 163.212 123.209C164.635 117.785 165.346 111.429 165.346 104.138C165.346 97.6482 164.679 93.1584 163.346 90.6691C162.012 88.0908 160.368 86.8017 158.412 86.8017C156.367 86.8017 154.766 88.5798 153.611 92.136C152.455 95.6033 151.744 101.471 151.477 109.739L151.344 114.14Z" fill="#15038C"/>
<path d="M125.543 171.618C128.121 171.618 130.255 171.306 131.944 170.684V179.486C129.899 180.108 127.543 180.419 124.876 180.419C119.631 180.419 114.696 178.819 110.073 175.618C105.539 172.418 101.583 167.795 98.2044 161.749L86.2021 179.352H75C84.1573 166.461 90.4251 157.393 93.8035 152.147C89.3583 140.323 87.1356 126.187 87.1356 109.739C87.1356 88.5798 92.6478 78 103.672 78C108.74 78 112.74 80.2226 115.674 84.6679C118.697 89.0243 120.209 95.47 120.209 104.005C120.209 112.807 119.008 120.764 116.608 127.876C114.207 134.9 109.984 143.257 103.939 152.947C106.695 158.904 109.984 163.527 113.807 166.817C117.63 170.017 121.542 171.618 125.543 171.618ZM96.6041 114.14C96.6041 124.364 97.7599 133.655 100.071 142.012C104.25 134.9 107.05 128.632 108.473 123.209C109.895 117.785 110.607 111.429 110.607 104.138C110.607 97.6482 109.94 93.1584 108.606 90.6691C107.273 88.0908 105.628 86.8017 103.672 86.8017C101.627 86.8017 100.027 88.5798 98.8712 92.136C97.7154 95.6033 97.0042 101.471 96.7374 109.739L96.6041 114.14Z" fill="#15038C"/>
</svg>
